<svg width="55" height="55" viewBox="0 0 55 55" fill="none" xmlns="http://www.w3.org/2000/svg">
<circle cx="27.5" cy="27.5" r="27.5" fill="white"/>
<circle cx="27.5" cy="27.5" r="27.5" fill="white"/>
<path d="M27.5 13.973C31.9057 13.973 32.4276 13.9898 34.1674 14.0692C35.7761 14.1425 36.6498 14.4113 37.2312 14.6373C38.0014 14.9366 38.5511 15.2942 39.1284 15.8715C39.7058 16.4489 40.0634 16.9986 40.3627 17.7687C40.5887 18.3502 40.8575 19.2238 40.9308 20.8326C41.0102 22.5724 41.027 23.0943 41.027 27.4999C41.027 31.9056 41.0102 32.4275 40.9308 34.1673C40.8575 35.7761 40.5887 36.6497 40.3627 37.2311C40.0634 38.0013 39.7058 38.551 39.1285 39.1283C38.5511 39.7057 38.0014 40.0633 37.2312 40.3626C36.6498 40.5886 35.7761 40.8574 34.1674 40.9307C32.4278 41.0101 31.906 41.0269 27.5 41.0269C23.094 41.0269 22.5722 41.0101 20.8326 40.9307C19.2238 40.8574 18.3502 40.5886 17.7688 40.3626C16.9986 40.0633 16.4489 39.7057 15.8716 39.1283C15.2942 38.551 14.9366 38.0013 14.6373 37.2311C14.4113 36.6497 14.1425 35.7761 14.0692 34.1673C13.9898 32.4275 13.973 31.9056 13.973 27.4999C13.973 23.0943 13.9898 22.5724 14.0692 20.8326C14.1425 19.2238 14.4113 18.3502 14.6373 17.7687C14.9366 16.9986 15.2942 16.4489 15.8716 15.8716C16.4489 15.2942 16.9986 14.9366 17.7688 14.6373C18.3502 14.4113 19.2238 14.1425 20.8326 14.0692C22.5724 13.9898 23.0943 13.973 27.5 13.973ZM27.5 11C23.0189 11 22.457 11.019 20.6971 11.0993C18.9408 11.1794 17.7414 11.4583 16.6919 11.8662C15.6069 12.2879 14.6867 12.852 13.7693 13.7693C12.8521 14.6867 12.2879 15.6068 11.8663 16.6919C11.4583 17.7414 11.1794 18.9408 11.0993 20.697C11.019 22.4569 11 23.0188 11 27.4999C11 31.9811 11.019 32.543 11.0993 34.3028C11.1794 36.0591 11.4583 37.2585 11.8663 38.308C12.2879 39.393 12.8521 40.3132 13.7693 41.2306C14.6867 42.1478 15.6069 42.712 16.6919 43.1336C17.7414 43.5415 18.9408 43.8205 20.6971 43.9006C22.457 43.9809 23.0189 43.9999 27.5 43.9999C31.9811 43.9999 32.543 43.9809 34.3029 43.9006C36.0592 43.8205 37.2586 43.5415 38.3081 43.1336C39.3931 42.712 40.3133 42.1478 41.2307 41.2306C42.1479 40.3132 42.7121 39.393 43.1338 38.308C43.5416 37.2585 43.8206 36.0591 43.9007 34.3028C43.981 32.543 44 31.9811 44 27.4999C44 23.0188 43.981 22.4569 43.9007 20.697C43.8206 18.9408 43.5416 17.7414 43.1338 16.6919C42.7121 15.6068 42.1479 14.6867 41.2307 13.7693C40.3133 12.852 39.3931 12.2879 38.3081 11.8662C37.2586 11.4583 36.0592 11.1794 34.3029 11.0993C32.543 11.019 31.9811 11 27.5 11Z" fill="#C13584"/>
<path d="M27.5078 19.0352C22.8282 19.0352 19.0348 22.8286 19.0348 27.5081C19.0348 32.1876 22.8282 35.981 27.5078 35.981C32.1873 35.981 35.9807 32.1876 35.9807 27.5081C35.9807 22.8286 32.1873 19.0352 27.5078 19.0352ZM27.5078 33.0081C24.4702 33.0081 22.0078 30.5457 22.0078 27.5081C22.0078 24.4705 24.4702 22.0081 27.5078 22.0081C30.5453 22.0081 33.0078 24.4705 33.0078 27.5081C33.0078 30.5457 30.5453 33.0081 27.5078 33.0081Z" fill="#C13584"/>
<path d="M38.2947 18.6949C38.2947 19.7883 37.4082 20.6748 36.3147 20.6748C35.2212 20.6748 34.3347 19.7883 34.3347 18.6949C34.3347 17.6013 35.2212 16.7148 36.3147 16.7148C37.4082 16.7148 38.2947 17.6013 38.2947 18.6949Z" fill="#C13584"/>
</svg>
